<svg width="70" height="70" viewBox="0 0 70 70" fill="none" xmlns="http://www.w3.org/2000/svg">
<rect width="70" height="70" rx="14" fill="#003F87"/>
<path d="M35.76 48.84C33.28 48.84 31.0133 48.7067 28.96 48.44C26.9067 48.2 24.9067 47.8533 22.96 47.4C21.0133 46.92 18.9467 46.3467 16.76 45.68L15.64 48H13.76V36.76H15.64C15.9867 37.5333 16.6267 38.3867 17.56 39.32C18.52 40.2533 19.7067 41.1867 21.12 42.12C22.56 43.0267 24.16 43.8667 25.92 44.64C27.7067 45.4133 29.5867 46.04 31.56 46.52C33.56 46.9733 35.5867 47.2 37.64 47.2C38.68 47.2 39.7067 47.16 40.72 47.08C41.76 46.9733 42.6133 46.7733 43.28 46.48C43.9733 46.1867 44.32 45.76 44.32 45.2C44.32 44.6133 43.8933 44.0933 43.04 43.64C42.1867 43.1867 41.0267 42.76 39.56 42.36C38.12 41.96 36.4933 41.56 34.68 41.16C32.8667 40.76 31 40.3333 29.08 39.88C27.16 39.4 25.2933 38.8667 23.48 38.28C21.6667 37.6933 20.0267 37.0133 18.56 36.24C17.12 35.4667 15.9733 34.5867 15.12 33.6C14.2667 32.5867 13.84 31.4267 13.84 30.12C13.84 28.36 14.24 26.92 15.04 25.8C15.84 24.68 16.9067 23.8133 18.24 23.2C19.6 22.56 21.1067 22.1067 22.76 21.84C24.4133 21.5467 26.0933 21.3733 27.8 21.32C29.5333 21.24 31.16 21.2 32.68 21.2C34.0667 21.2 35.64 21.28 37.4 21.44C39.16 21.5733 40.96 21.7733 42.8 22.04C44.64 22.28 46.4133 22.5467 48.12 22.84C49.8267 23.1333 51.32 23.4267 52.6 23.72L53.32 22H55.2V30.44H53.32C52.9467 29.88 52.2 29.2667 51.08 28.6C49.9867 27.9333 48.6667 27.2667 47.12 26.6C45.5733 25.9067 43.92 25.28 42.16 24.72C40.4267 24.16 38.7067 23.7067 37 23.36C35.2933 23.0133 33.7333 22.84 32.32 22.84C30.9067 22.84 29.7067 22.9867 28.72 23.28C27.7333 23.5733 27.24 24.1467 27.24 25C27.24 25.6933 27.6533 26.2667 28.48 26.72C29.3067 27.1733 30.4133 27.56 31.8 27.88C33.2133 28.1733 34.7867 28.4667 36.52 28.76C38.28 29.0267 40.08 29.3333 41.92 29.68C43.7867 30 45.5867 30.4133 47.32 30.92C49.08 31.4267 50.6533 32.0667 52.04 32.84C53.4533 33.5867 54.5733 34.5333 55.4 35.68C56.2267 36.8 56.64 38.16 56.64 39.76C56.64 42.9867 54.84 45.3067 51.24 46.72C47.6667 48.1333 42.5067 48.84 35.76 48.84ZM48.92 45.28L49.08 45.24V44.32C49.08 42.9333 48.64 41.8267 47.76 41C46.88 40.1733 45.68 39.52 44.16 39.04C42.6667 38.5333 40.96 38.0933 39.04 37.72C37.1467 37.32 35.16 36.8667 33.08 36.36C31.2133 35.9067 29.3733 35.4133 27.56 34.88C25.7733 34.32 24.1333 33.68 22.64 32.96C21.1467 32.2133 19.9067 31.3467 18.92 30.36C17.9333 29.3467 17.32 28.1733 17.08 26.84L16.8 26.8C16.64 27.1467 16.5067 27.5867 16.4 28.12C16.32 28.6533 16.28 29.1467 16.28 29.6C16.28 31.4667 17.4 33.0667 19.64 34.4C21.9067 35.7333 25.4133 37.0133 30.16 38.24C33.12 38.9867 35.64 39.6 37.72 40.08C39.8267 40.56 41.5867 41.0133 43 41.44C44.44 41.84 45.6267 42.3333 46.56 42.92C47.4933 43.5067 48.28 44.2933 48.92 45.28Z" fill="#5EA9FF"/>
</svg>
